<?xml version="1.0" encoding="UTF-8"?>
<svg version="1.1" xmlns="http://www.w3.org/2000/svg" width="512" height="512">
<path d="M0 0 C6.6171549 4.92861247 12.73900068 10.36374086 18.72273993 16.03627914 C19.26373769 16.54578188 19.80473544 17.05528462 20.36212707 17.58022684 C60.24703721 55.45859042 65.79653937 101.99417692 67.16623664 154.91587204 C68.09875248 200.1387561 65.93126556 245.47759774 62.37386298 290.55361313 C62.29976262 291.54671222 62.22566226 292.53981131 62.14931643 293.56300431 C61.93764832 296.33926625 61.70272442 299.11247598 61.45935798 301.8861174 C61.40073168 302.68357179 61.34210537 303.48102618 61.28170252 304.30264586 C60.63431175 311.09786519 58.56386877 317.16217915 53.28523993 321.72377914 C45.97804374 326.89970978 39.15654869 326.99720168 30.43028998 326.98249191 C28.94873744 326.98589025 28.94873744 326.98589025 27.43725455 326.98935723 C24.13022344 326.99568339 20.82323346 326.99486876 17.51619697 326.99404281 C15.14408542 326.99703515 12.77197437 327.00043785 10.39986396 327.00422043 C4.62677764 327.01213891 -1.14629621 327.01527473 -6.91938768 327.0158328 C-11.6131136 327.01630848 -16.30683615 327.01836581 -21.000561 327.02153343 C-34.31627038 327.03033646 -47.63197172 327.0349533 -60.94768403 327.03420296 C-61.66504276 327.034163 -62.38240148 327.03412304 -63.12149835 327.03408188 C-63.83973563 327.034041 -64.55797291 327.03400011 -65.29797496 327.033958 C-76.93841703 327.03355153 -88.57882677 327.04312214 -100.21925949 327.05722024 C-112.17954162 327.07159113 -124.13980798 327.07849005 -136.10009897 327.07762647 C-142.8117125 327.07729476 -149.52329211 327.08003019 -156.23489785 327.09080452 C-162.54679147 327.10048219 -168.85861344 327.10056689 -175.17050958 327.09328789 C-177.48601281 327.09224167 -179.80152049 327.09460709 -182.11701608 327.10064834 C-185.28004264 327.10836586 -188.4428216 327.10372489 -191.60584283 327.0960173 C-192.52005687 327.10116086 -193.4342709 327.10630443 -194.3761884 327.11160386 C-202.38171702 327.06855502 -209.3237034 326.10364795 -215.71476007 320.84877914 C-219.85907594 315.94280521 -221.83675827 312.08954024 -221.84898114 305.56689304 C-221.85343899 304.46510048 -221.85789683 303.36330793 -221.86248976 302.22812772 C-221.8623054 301.01278354 -221.86212103 299.79743936 -221.86193109 298.54526657 C-221.86560777 297.25794527 -221.86928446 295.97062398 -221.87307256 294.64429295 C-221.88309675 291.06361703 -221.88681003 287.48295787 -221.88946187 283.9022699 C-221.89336369 280.04323061 -221.90294212 276.18420461 -221.91167474 272.3251738 C-221.93144268 263.00187364 -221.9415058 253.6785724 -221.95040253 244.35525653 C-221.95478491 239.96555077 -221.96015185 235.57584623 -221.9653914 231.18614143 C-221.98240405 216.59510718 -221.99689844 202.00407369 -222.00414014 187.41303104 C-222.00605006 183.62607011 -222.00797039 179.83910919 -222.00992608 176.05214828 C-222.01040982 175.110909 -222.01089356 174.16966972 -222.01139196 173.19990804 C-222.01969305 157.95092982 -222.04503113 142.70203003 -222.07750676 127.45308606 C-222.11057147 111.8000191 -222.12858837 96.146992 -222.13178438 80.49388993 C-222.13395003 71.70415563 -222.14270668 62.91453571 -222.16824555 54.12483543 C-222.18994453 46.63938438 -222.19800695 39.15407547 -222.18827877 31.66859654 C-222.1837317 27.84984599 -222.18564364 24.03138876 -222.20504022 20.21267837 C-222.22589719 16.07064885 -222.2156943 11.9292708 -222.20250726 7.78720993 C-222.2134765 6.58301936 -222.22444575 5.37882879 -222.2357474 4.13814759 C-222.1795511 -3.1628866 -221.48098406 -9.20788024 -216.26744658 -14.66659808 C-180.96112087 -45.58287397 -36.77400912 -26.5545431 0 0 Z M-199.71476007 1.84877914 C-199.71476007 101.50877914 -199.71476007 201.16877914 -199.71476007 303.84877914 C-121.17476007 303.84877914 -42.63476007 303.84877914 38.28523993 303.84877914 C38.28523993 234.54877914 38.28523993 165.24877914 38.28523993 93.84877914 C16.17523993 93.51877914 -5.93476007 93.18877914 -28.71476007 92.84877914 C-40.71476007 89.24877914 -40.71476007 89.24877914 -45.71476007 83.84877914 C-56.83649611 58.82487305 -50.33967061 29.23030935 -50.71476007 1.84877914 C-99.88476007 1.84877914 -149.05476007 1.84877914 -199.71476007 1.84877914 Z M-28.71476007 25.84877914 C-28.76535887 32.07839891 -28.80045069 38.30796594 -28.82462335 44.53774399 C-28.83469758 46.65820684 -28.8483574 48.77865575 -28.86563897 50.89907211 C-28.88982496 53.94223857 -28.90122876 56.98522181 -28.91007257 60.02846664 C-28.92039514 60.98059036 -28.93071771 61.93271408 -28.94135308 62.91369003 C-28.94150414 63.79445205 -28.94165521 64.67521408 -28.94181085 65.58266586 C-28.94625207 66.35987991 -28.95069329 67.13709396 -28.9552691 67.93785995 C-28.88287401 70.08951304 -28.88287401 70.08951304 -26.71476007 71.84877914 C-24.73536866 72.14014079 -24.73536866 72.14014079 -22.44864678 72.07582992 C-21.56788476 72.07567886 -20.68712274 72.0755278 -19.77967095 72.07537216 C-18.82754724 72.06504959 -17.87542352 72.05472702 -16.89444757 72.04409164 C-15.43375344 72.0398468 -15.43375344 72.0398468 -13.94355035 72.0355162 C-10.82549658 72.02429827 -7.70772739 71.99919084 -4.58976007 71.97377914 C-2.47908712 71.96375142 -0.36840969 71.95462521 1.74227118 71.94643539 C6.92335828 71.92435372 12.10427878 71.89086044 17.28523993 71.84877914 C12.53796008 66.14184641 7.45704498 60.87478593 2.20320868 55.63393539 C1.34842429 54.77819427 0.4936399 53.92245315 -0.38704705 53.04078048 C-2.18182385 51.2453266 -3.97785042 49.45112123 -5.7750628 47.65810531 C-8.53932982 44.89923294 -11.29817166 42.13501525 -14.05655694 39.37026352 C-15.80298082 37.62449972 -17.5497145 35.87904577 -19.29679132 34.13393539 C-20.1258851 33.30281738 -20.95497888 32.47169937 -21.80919671 31.61539596 C-22.57056436 30.85718048 -23.331932 30.09896499 -24.11637139 29.31777328 C-25.12514085 28.31019722 -25.12514085 28.31019722 -26.15428948 27.28226608 C-27.48434081 25.73602784 -27.48434081 25.73602784 -28.71476007 25.84877914 Z " fill="#000000" transform="translate(336.71476006507874,103.15122085809708)"/>
<path d="M0 0 C0.66394891 -0.00297112 1.32789783 -0.00594224 2.01196641 -0.0090034 C4.24124125 -0.01768894 6.47046238 -0.01919852 8.69975281 -0.02069092 C10.29635228 -0.0253192 11.89295065 -0.03034387 13.48954773 -0.03573608 C17.83054317 -0.04886119 22.17152315 -0.05530526 26.51253533 -0.05974674 C29.2244152 -0.06267731 31.93629083 -0.06678209 34.64816856 -0.07125092 C43.13241313 -0.08492617 51.61664803 -0.09459268 60.10090286 -0.09845281 C69.89583135 -0.10293369 79.6906203 -0.12048288 89.48550636 -0.1494534 C97.05587688 -0.17106744 104.62620814 -0.18115694 112.1966092 -0.18249393 C116.71842097 -0.18354216 121.24010158 -0.18945384 125.76188087 -0.20731354 C130.01609022 -0.22378941 134.27006974 -0.22595212 138.52429962 -0.21717453 C140.08435621 -0.21640389 141.64442513 -0.22075042 143.20445061 -0.23063278 C145.33725722 -0.24334951 147.46924948 -0.23747777 149.60205078 -0.22705078 C151.39093704 -0.22925062 151.39093704 -0.22925062 153.21596241 -0.2314949 C156.93325677 0.1906032 159.31862262 1.18032534 162.49150085 3.14044189 C165.31518656 7.37597045 165.15803842 11.16521504 164.49150085 16.14044189 C162.69503231 19.07467385 161.54739375 20.61249545 158.49150085 22.14044189 C156.32601529 22.24344417 154.15728506 22.27998465 151.98936462 22.28761292 C151.31401948 22.2912896 150.63867433 22.29496629 149.94286418 22.29875439 C147.66902975 22.30980958 145.39524098 22.31363817 143.12138367 22.31744385 C141.4953751 22.32370714 139.86936798 22.33035382 138.24336243 22.33735657 C133.8176043 22.35477936 129.39185698 22.36532194 124.96607304 22.3735621 C122.20176823 22.37870984 119.4374668 22.3847857 116.67316437 22.39107323 C108.02660245 22.4101294 99.38004909 22.42435928 90.7334702 22.4326852 C80.74832072 22.44245836 70.76339288 22.46877811 60.7783215 22.50918609 C53.06359964 22.53933616 45.34894135 22.55415304 37.63416171 22.55746621 C33.02509916 22.55981808 28.41627328 22.56879616 23.80727386 22.59392738 C19.47013367 22.61719362 15.1333862 22.62144726 10.7961998 22.611166 C9.20549845 22.61067016 7.61477787 22.61700475 6.02413559 22.63072205 C3.8494774 22.64842429 1.67623113 22.64134474 -0.49842834 22.62818909 C-1.71444103 22.63057744 -2.93045372 22.63296579 -4.18331528 22.63542652 C-8.18638669 22.03953201 -10.36834275 20.64660747 -13.50849915 18.14044189 C-15.25198866 14.65346288 -15.0893264 10.94454127 -14.50849915 7.14044189 C-11.10215239 0.77491359 -6.77142616 0.01690591 0 0 Z " fill="#000000" transform="translate(181.5084991455078,296.85955810546875)"/>
<path d="M0 0 C0.68013426 -0.00367669 1.36026853 -0.00735338 2.06101292 -0.01114148 C4.35100082 -0.02219686 6.64094337 -0.02602527 8.93095398 -0.02983093 C10.56843714 -0.03609416 12.20591888 -0.04274083 13.84339905 -0.04974365 C18.30008082 -0.06716577 22.75675185 -0.07770858 27.21345925 -0.08594918 C29.99651734 -0.09109648 32.77957207 -0.09717231 35.56262779 -0.10346031 C44.26631882 -0.12251526 52.97000133 -0.13674609 61.67370921 -0.14507228 C71.72791857 -0.15484864 81.781908 -0.18117724 91.83603984 -0.22157317 C99.60255031 -0.25170936 107.36899764 -0.26653875 115.13556546 -0.26985329 C119.77645343 -0.27220653 124.41710653 -0.28120232 129.0579319 -0.30631447 C133.42379541 -0.32955681 137.78926878 -0.33384401 142.15517807 -0.32355309 C143.75758726 -0.32305668 145.36001541 -0.32940781 146.9623661 -0.34310913 C149.15051035 -0.36077256 151.33724596 -0.35375099 153.52539062 -0.34057617 C154.74969945 -0.34296453 155.97400827 -0.34535288 157.23541737 -0.34781361 C161.06917493 0.24193048 162.71513716 1.45413619 165.45317078 4.14717102 C167.1858099 7.61244926 166.92514818 11.3582413 166.45317078 15.14717102 C164.08769586 19.26484958 161.89662782 20.72498323 157.45317078 22.14717102 C154.34029484 22.40164661 154.34029484 22.40164661 150.78009033 22.40786743 C149.79385434 22.41360575 149.79385434 22.41360575 148.78769439 22.41946 C146.59220138 22.42975017 144.39697184 22.42580554 142.20146179 22.42182922 C140.62427021 22.4261779 139.04708074 22.43136157 137.46989441 22.43731689 C133.19097464 22.45070112 128.91214323 22.45128623 124.63320661 22.4487536 C121.05961202 22.44768354 117.48603529 22.45256812 113.91244453 22.45735902 C105.48126351 22.46845211 97.05012705 22.46889265 88.61894226 22.46284485 C79.92394829 22.45680368 71.22911608 22.46912013 62.53414971 22.49041492 C55.06564127 22.50803276 47.59718431 22.51403201 40.12865585 22.51077718 C35.66948195 22.50896454 31.21042346 22.51159858 26.75126839 22.52549171 C22.55775437 22.53806851 18.36449251 22.53612744 14.17098236 22.52308083 C12.63350527 22.5207152 11.09601044 22.52344925 9.5585537 22.53170395 C7.45648886 22.54217476 5.35526962 22.53406915 3.25323486 22.52139282 C1.49036809 22.52164443 1.49036809 22.52164443 -0.30811214 22.52190113 C-4.74193424 22.00889348 -8.05535266 20.43978404 -11.42182922 17.52217102 C-13.19303932 13.7829497 -13.21898615 10.20179506 -12.54682922 6.14717102 C-8.96716132 0.41970237 -6.4986565 0.0227047 0 0 Z " fill="#000000" transform="translate(179.5468292236328,350.8528289794922)"/>
<path d="M0 0 C7.95216599 5.67447606 13.3059728 13.07928459 15.07421875 22.76171875 C16.44223484 32.53765393 14.8691404 40.97801941 9.43359375 49.26953125 C3.78971268 56.6028224 -3.04592914 60.67393499 -11.828125 63.30859375 C-12.653125 63.39109375 -13.478125 63.47359375 -14.328125 63.55859375 C-14.9365625 63.62175781 -15.545 63.68492187 -16.171875 63.75 C-25.65447576 64.28253736 -34.59657258 61.53569581 -41.828125 55.37109375 C-49.27521949 47.99653589 -53.20021015 39.64344645 -53.640625 29.18359375 C-53.3505464 19.25266741 -49.4050375 10.40046401 -42.21875 3.546875 C-30.38669848 -6.18396737 -13.39281673 -8.29186136 0 0 Z M-31.203125 20.62109375 C-33.59434139 24.73929975 -33.95492811 28.90612559 -33.328125 33.55859375 C-30.92973027 38.3553832 -28.14534165 41.19543087 -23.328125 43.55859375 C-18.55788755 44.39788149 -15.27033683 44.04714803 -10.953125 41.80859375 C-6.56916188 38.05091107 -4.57752299 35.15233286 -4.015625 29.30859375 C-4.39108103 24.80312141 -5.42373128 22.00969688 -8.328125 18.55859375 C-11.63985074 15.77149783 -14.54864409 14.66994817 -18.828125 14.05859375 C-23.9973437 14.79705356 -27.62303903 16.68299919 -31.203125 20.62109375 Z " fill="#000000" transform="translate(233.328125,131.44140625)"/>
<path d="M0 0 C9.65246046 7.36107518 16.7869518 15.84637463 19 28 C19.63356635 33.16708556 20.14459339 38.1671625 17.0625 42.625 C13.09927608 45.69852059 9.9835733 46.5352077 5 46 C0.84436982 43.95996337 -1.24922694 42.22784935 -3 38 C-3.33608277 36.3836019 -3.62586896 34.75706255 -3.875 33.125 C-5.10083651 26.80079801 -7.37232845 22.88783664 -12.75 19.25 C-20.45705999 14.80306928 -28.39826537 13.900634 -37 16.1875 C-43.79705485 18.40842218 -48.84201343 21.44375058 -52.2421875 27.97265625 C-53.12791223 30.34219819 -53.52968894 32.6299378 -53.9375 35.125 C-54.72707839 39.79845045 -56.17008057 42.03181244 -60 45 C-63.55298402 46.77649201 -67.2573064 46.00665552 -71 45 C-74.64657304 42.24646526 -75.70819398 40.78731187 -76.4375 36.3203125 C-76.89724676 25.257656 -73.23081935 16.22877746 -66 8 C-65.49855469 7.39414063 -64.99710938 6.78828125 -64.48046875 6.1640625 C-48.61936843 -11.51083762 -19.16922829 -12.30995171 0 0 Z " fill="#000000" transform="translate(243,207)"/>
</svg>
